<svg class="icon" viewBox="0 0 1024 1024" xmlns="http://www.w3.org/2000/svg" width="32" height="32"><path d="M995.2 396.8c-22.4-9.6-115.2 0-140.8-22.4-19.2-16-19.2-48-25.6-86.4-12.8-67.2-16-83.2-28.8-108.8-44.8-96-153.6-176-249.6-176H323.2c-176-3.2-320 144-320 320v377.6c0 179.2 144 323.2 323.2 323.2h371.2c179.2 0 323.2-144 323.2-323.2l3.2-262.4c-3.2 0-3.2-32-28.8-41.6zM329.6 265.6h179.2c35.2 0 60.8 28.8 60.8 60.8 0 35.2-28.8 60.8-60.8 60.8H329.6c-35.2 0-60.8-28.8-60.8-60.8 0-35.2 25.6-60.8 60.8-60.8zm364.8 492.8H329.6c-35.2 0-60.8-28.8-60.8-60.8 0-35.2 28.8-60.8 60.8-60.8h364.8c35.2 0 60.8 28.8 60.8 60.8 0 32-28.8 60.8-60.8 60.8z" fill="#444"/></svg>